<svg width="27" height="26" viewBox="0 0 27 26" fill="none" xmlns="http://www.w3.org/2000/svg">
<ellipse cx="13.5" cy="13" rx="3.375" ry="3.25" stroke="#F5F3EB" stroke-width="1.5" stroke-linecap="round"/>
<path fill-rule="evenodd" clip-rule="evenodd" d="M11.3276 3.64307C12.0544 1.67456 14.9455 1.67456 15.6723 3.64305C16.1302 4.88271 17.6007 5.46925 18.8347 4.90441C20.7941 4.00747 22.8383 5.97596 21.907 7.86289C21.3204 9.05117 21.9295 10.4672 23.2168 10.9081C25.261 11.608 25.261 14.392 23.2168 15.0919C21.9295 15.5329 21.3204 16.9489 21.907 18.1372C22.8383 20.024 20.7941 21.9926 18.8347 21.0957C17.6007 20.5308 16.1302 21.1173 15.6723 22.357C14.9455 24.3255 12.0544 24.3255 11.3276 22.357C10.8697 21.1173 9.39921 20.5308 8.16522 21.0957C6.20572 21.9926 4.16152 20.024 5.09296 18.1372C5.67953 16.9489 5.07043 15.5329 3.78309 15.0919C1.73889 14.392 1.73889 11.608 3.7831 10.9081C5.07043 10.4672 5.67953 9.05117 5.09296 7.86289C4.16152 5.97596 6.20572 4.00747 8.16522 4.90441C9.39921 5.46925 10.8697 4.88271 11.3276 3.64307Z" stroke="#F5F3EB" stroke-width="1.5" stroke-linecap="round"/>
</svg>
