<svg width="27" height="26" viewBox="0 0 27 26" fill="none" xmlns="http://www.w3.org/2000/svg">
<ellipse cx="13.5" cy="13" rx="3.375" ry="3.25" stroke="#F5F3EB" stroke-width="1.5" stroke-linecap="round"/>
<path fill-rule="evenodd" clip-rule="evenodd" d="M11.3276 3.64307C12.0545 1.67456 14.9455 1.67456 15.6724 3.64305C16.1303 4.88271 17.6007 5.46925 18.8348 4.90441C20.7942 4.00747 22.8384 5.97596 21.907 7.86289C21.3204 9.05117 21.9295 10.4672 23.2169 10.9081C25.2611 11.608 25.2611 14.392 23.2169 15.0919C21.9295 15.5329 21.3204 16.9489 21.907 18.1372C22.8384 20.024 20.7942 21.9926 18.8348 21.0957C17.6007 20.5308 16.1303 21.1173 15.6724 22.357C14.9455 24.3255 12.0545 24.3255 11.3276 22.357C10.8698 21.1173 9.39928 20.5308 8.16529 21.0957C6.20578 21.9926 4.16158 20.024 5.09302 18.1372C5.67959 16.9489 5.07049 15.5329 3.78315 15.0919C1.73895 14.392 1.73895 11.608 3.78316 10.9081C5.07049 10.4672 5.67959 9.05117 5.09302 7.86289C4.16158 5.97596 6.20578 4.00747 8.16529 4.90441C9.39928 5.46925 10.8698 4.88271 11.3276 3.64307Z" stroke="#F5F3EB" stroke-width="1.5" stroke-linecap="round"/>
</svg>
